<mxfile host="app.diagrams.net" modified="2022-01-08T02:27:58.548Z" agent="5.0 (Macintosh; Intel Mac OS X 10_15_7) AppleWebKit/537.36 (KHTML, like Gecko) Chrome/97.0.4692.71 Safari/537.36" etag="mVlDM7yKDuT5J7uAhBZK" version="16.2.4" type="github">
  <diagram id="h9dFl7BtjYhouRQpgsoD" name="Page-1">
    <mxGraphModel dx="946" dy="648" grid="1" gridSize="10" guides="1" tooltips="1" connect="1" arrows="1" fold="1" page="1" pageScale="1" pageWidth="850" pageHeight="1100" math="0" shadow="0">
      <root>
        <mxCell id="0" />
        <mxCell id="1" parent="0" />
        <mxCell id="VJyBcLO_9741J4DAKMgz-3" value="" style="rounded=1;whiteSpace=wrap;html=1;sketch=1;" vertex="1" parent="1">
          <mxGeometry x="248" y="80" width="355" height="580" as="geometry" />
        </mxCell>
        <mxCell id="VJyBcLO_9741J4DAKMgz-4" value="Profile" style="rounded=1;whiteSpace=wrap;html=1;sketch=1;fillStyle=cross-hatch;fillColor=#E6E6E6;" vertex="1" parent="1">
          <mxGeometry x="308" y="120" width="70" height="30" as="geometry" />
        </mxCell>
        <mxCell id="VJyBcLO_9741J4DAKMgz-5" value="Courses" style="rounded=1;whiteSpace=wrap;html=1;sketch=1;" vertex="1" parent="1">
          <mxGeometry x="379" y="120" width="70" height="30" as="geometry" />
        </mxCell>
        <mxCell id="VJyBcLO_9741J4DAKMgz-6" value="" style="rounded=1;whiteSpace=wrap;html=1;sketch=1;fillStyle=auto;fillColor=#FFFFFF;" vertex="1" parent="1">
          <mxGeometry x="270.5" y="150" width="310" height="440" as="geometry" />
        </mxCell>
        <mxCell id="VJyBcLO_9741J4DAKMgz-7" value="" style="endArrow=none;html=1;rounded=0;sketch=1;curved=1;entryX=1.008;entryY=0.873;entryDx=0;entryDy=0;entryPerimeter=0;" edge="1" parent="1" target="VJyBcLO_9741J4DAKMgz-6">
          <mxGeometry width="50" height="50" relative="1" as="geometry">
            <mxPoint x="270" y="534" as="sourcePoint" />
            <mxPoint x="450" y="360" as="targetPoint" />
          </mxGeometry>
        </mxCell>
        <mxCell id="VJyBcLO_9741J4DAKMgz-8" value="Done" style="text;html=1;strokeColor=none;fillColor=none;align=center;verticalAlign=middle;whiteSpace=wrap;rounded=0;sketch=1;fillStyle=auto;shadow=0;fontFamily=Helvetica;" vertex="1" parent="1">
          <mxGeometry x="395.5" y="550" width="60" height="30" as="geometry" />
        </mxCell>
        <mxCell id="VJyBcLO_9741J4DAKMgz-9" value="" style="rounded=1;whiteSpace=wrap;html=1;shadow=0;sketch=1;fillStyle=auto;fontFamily=Helvetica;fillColor=#FFFFFF;" vertex="1" parent="1">
          <mxGeometry x="290" y="170" width="270" height="150" as="geometry" />
        </mxCell>
        <mxCell id="VJyBcLO_9741J4DAKMgz-10" value="" style="rounded=1;whiteSpace=wrap;html=1;shadow=0;sketch=1;fillStyle=auto;fontFamily=Helvetica;fillColor=#FFFFFF;" vertex="1" parent="1">
          <mxGeometry x="290" y="340" width="270" height="60" as="geometry" />
        </mxCell>
      </root>
    </mxGraphModel>
  </diagram>
</mxfile>
